<?xml version="1.0" encoding="UTF-8"?>
<svg version="1.1" xmlns="http://www.w3.org/2000/svg" width="366" height="322">
<path d="M0 0 C14.52 0 29.04 0 44 0 C44 0.66 44 1.32 44 2 C45.32 2 46.64 2 48 2 C48 40.94 48 79.88 48 120 C48.66 120 49.32 120 50 120 C50 119.34 50 118.68 50 118 C50.66 118 51.32 118 52 118 C52 117.34 52 116.68 52 116 C52.66 116 53.32 116 54 116 C54 115.34 54 114.68 54 114 C54.66 114 55.32 114 56 114 C56 113.34 56 112.68 56 112 C57.32 112 58.64 112 60 112 C60 111.34 60 110.68 60 110 C60.66 110 61.32 110 62 110 C62 109.34 62 108.68 62 108 C62.66 108 63.32 108 64 108 C64 107.34 64 106.68 64 106 C64.66 106 65.32 106 66 106 C66 105.34 66 104.68 66 104 C66.66 104 67.32 104 68 104 C68 103.34 68 102.68 68 102 C68.66 102 69.32 102 70 102 C70 101.34 70 100.68 70 100 C70.66 100 71.32 100 72 100 C72 99.34 72 98.68 72 98 C73.32 98 74.64 98 76 98 C76 97.34 76 96.68 76 96 C76.66 96 77.32 96 78 96 C78 95.34 78 94.68 78 94 C78.66 94 79.32 94 80 94 C80 93.34 80 92.68 80 92 C81.32 92 82.64 92 84 92 C84 91.34 84 90.68 84 90 C85.32 90 86.64 90 88 90 C88 89.34 88 88.68 88 88 C93.94 88 99.88 88 106 88 C106 88.66 106 89.32 106 90 C107.32 90 108.64 90 110 90 C110 90.66 110 91.32 110 92 C110.66 92 111.32 92 112 92 C112 92.66 112 93.32 112 94 C112.66 94 113.32 94 114 94 C114 95.32 114 96.64 114 98 C114.66 98 115.32 98 116 98 C116 101.96 116 105.92 116 110 C115.34 110 114.68 110 114 110 C114 111.32 114 112.64 114 114 C113.34 114 112.68 114 112 114 C112 115.32 112 116.64 112 118 C111.34 118 110.68 118 110 118 C110 118.66 110 119.32 110 120 C109.34 120 108.68 120 108 120 C108 120.66 108 121.32 108 122 C107.34 122 106.68 122 106 122 C106 123.32 106 124.64 106 126 C105.34 126 104.68 126 104 126 C104 126.66 104 127.32 104 128 C103.34 128 102.68 128 102 128 C102 128.66 102 129.32 102 130 C101.34 130 100.68 130 100 130 C100 130.66 100 131.32 100 132 C99.34 132 98.68 132 98 132 C98 133.32 98 134.64 98 136 C97.34 136 96.68 136 96 136 C96 136.66 96 137.32 96 138 C95.34 138 94.68 138 94 138 C94 138.66 94 139.32 94 140 C93.34 140 92.68 140 92 140 C92 140.66 92 141.32 92 142 C91.34 142 90.68 142 90 142 C90 142.66 90 143.32 90 144 C89.34 144 88.68 144 88 144 C88 144.66 88 145.32 88 146 C87.34 146 86.68 146 86 146 C86 147.32 86 148.64 86 150 C85.34 150 84.68 150 84 150 C84 150.66 84 151.32 84 152 C83.34 152 82.68 152 82 152 C82 152.66 82 153.32 82 154 C81.34 154 80.68 154 80 154 C80 154.66 80 155.32 80 156 C79.34 156 78.68 156 78 156 C78 156.66 78 157.32 78 158 C77.34 158 76.68 158 76 158 C76 159.32 76 160.64 76 162 C75.34 162 74.68 162 74 162 C74 162.66 74 163.32 74 164 C73.34 164 72.68 164 72 164 C72 164.66 72 165.32 72 166 C71.34 166 70.68 166 70 166 C70 166.66 70 167.32 70 168 C69.34 168 68.68 168 68 168 C68 168.66 68 169.32 68 170 C67.34 170 66.68 170 66 170 C66 170.66 66 171.32 66 172 C65.34 172 64.68 172 64 172 C64 172.66 64 173.32 64 174 C63.34 174 62.68 174 62 174 C62 174.66 62 175.32 62 176 C61.34 176 60.68 176 60 176 C60 177.32 60 178.64 60 180 C59.34 180 58.68 180 58 180 C58 180.66 58 181.32 58 182 C57.34 182 56.68 182 56 182 C56 182.66 56 183.32 56 184 C55.34 184 54.68 184 54 184 C54 184.66 54 185.32 54 186 C53.34 186 52.68 186 52 186 C52 186.66 52 187.32 52 188 C51.34 188 50.68 188 50 188 C50 188.66 50 189.32 50 190 C49.34 190 48.68 190 48 190 C48 190.66 48 191.32 48 192 C47.34 192 46.68 192 46 192 C46 192.66 46 193.32 46 194 C45.34 194 44.68 194 44 194 C44 194.66 44 195.32 44 196 C43.34 196 42.68 196 42 196 C42 196.66 42 197.32 42 198 C41.34 198 40.68 198 40 198 C40 198.66 40 199.32 40 200 C39.34 200 38.68 200 38 200 C38 200.66 38 201.32 38 202 C37.34 202 36.68 202 36 202 C36 202.66 36 203.32 36 204 C35.34 204 34.68 204 34 204 C34 204.66 34 205.32 34 206 C33.34 206 32.68 206 32 206 C32 206.66 32 207.32 32 208 C31.34 208 30.68 208 30 208 C30 208.66 30 209.32 30 210 C29.34 210 28.68 210 28 210 C28 210.66 28 211.32 28 212 C27.34 212 26.68 212 26 212 C26 212.66 26 213.32 26 214 C24.68 214 23.36 214 22 214 C22 214.66 22 215.32 22 216 C21.34 216 20.68 216 20 216 C20 216.66 20 217.32 20 218 C19.34 218 18.68 218 18 218 C18 218.66 18 219.32 18 220 C17.34 220 16.68 220 16 220 C16 220.66 16 221.32 16 222 C14.68 222 13.36 222 12 222 C12 222.66 12 223.32 12 224 C11.34 224 10.68 224 10 224 C10 224.66 10 225.32 10 226 C9.34 226 8.68 226 8 226 C8 226.66 8 227.32 8 228 C6.68 228 5.36 228 4 228 C4 228.66 4 229.32 4 230 C2.68 230 1.36 230 0 230 C0 230.66 0 231.32 0 232 C-1.32 232 -2.64 232 -4 232 C-4 232.66 -4 233.32 -4 234 C-5.32 234 -6.64 234 -8 234 C-8 234.66 -8 235.32 -8 236 C-9.98 236 -11.96 236 -14 236 C-14 236.66 -14 237.32 -14 238 C-17.3 238 -20.6 238 -24 238 C-24 238.66 -24 239.32 -24 240 C-35.22 240 -46.44 240 -58 240 C-58 239.34 -58 238.68 -58 238 C-61.96 238 -65.92 238 -70 238 C-70 237.34 -70 236.68 -70 236 C-73.96 236 -77.92 236 -82 236 C-82 235.34 -82 234.68 -82 234 C-85.3 234 -88.6 234 -92 234 C-92 233.34 -92 232.68 -92 232 C-95.96 232 -99.92 232 -104 232 C-104 231.34 -104 230.68 -104 230 C-107.3 230 -110.6 230 -114 230 C-114 229.34 -114 228.68 -114 228 C-117.3 228 -120.6 228 -124 228 C-124 227.34 -124 226.68 -124 226 C-133.9 226 -143.8 226 -154 226 C-154 226.66 -154 227.32 -154 228 C-156.64 228 -159.28 228 -162 228 C-162 228.66 -162 229.32 -162 230 C-163.32 230 -164.64 230 -166 230 C-166 230.66 -166 231.32 -166 232 C-166.66 232 -167.32 232 -168 232 C-168 232.66 -168 233.32 -168 234 C-168.66 234 -169.32 234 -170 234 C-170 234.66 -170 235.32 -170 236 C-171.32 236 -172.64 236 -174 236 C-174 236.66 -174 237.32 -174 238 C-174.66 238 -175.32 238 -176 238 C-176 238.66 -176 239.32 -176 240 C-176.66 240 -177.32 240 -178 240 C-178 240.66 -178 241.32 -178 242 C-178.66 242 -179.32 242 -180 242 C-180 242.66 -180 243.32 -180 244 C-183.3 244 -186.6 244 -190 244 C-190 243.34 -190 242.68 -190 242 C-190.66 242 -191.32 242 -192 242 C-192 241.34 -192 240.68 -192 240 C-192.66 240 -193.32 240 -194 240 C-194 239.34 -194 238.68 -194 238 C-194.66 238 -195.32 238 -196 238 C-196 237.34 -196 236.68 -196 236 C-196.66 236 -197.32 236 -198 236 C-198 235.34 -198 234.68 -198 234 C-198.66 234 -199.32 234 -200 234 C-200 233.34 -200 232.68 -200 232 C-200.66 232 -201.32 232 -202 232 C-202 231.34 -202 230.68 -202 230 C-202.66 230 -203.32 230 -204 230 C-204 229.34 -204 228.68 -204 228 C-204.66 228 -205.32 228 -206 228 C-206 227.34 -206 226.68 -206 226 C-206.66 226 -207.32 226 -208 226 C-208 225.34 -208 224.68 -208 224 C-208.66 224 -209.32 224 -210 224 C-210 223.34 -210 222.68 -210 222 C-210.66 222 -211.32 222 -212 222 C-212 221.34 -212 220.68 -212 220 C-212.66 220 -213.32 220 -214 220 C-214 219.34 -214 218.68 -214 218 C-214.66 218 -215.32 218 -216 218 C-216 217.34 -216 216.68 -216 216 C-216.66 216 -217.32 216 -218 216 C-218 215.34 -218 214.68 -218 214 C-218.66 214 -219.32 214 -220 214 C-220 213.34 -220 212.68 -220 212 C-220.66 212 -221.32 212 -222 212 C-222 211.34 -222 210.68 -222 210 C-222.66 210 -223.32 210 -224 210 C-224 209.34 -224 208.68 -224 208 C-224.66 208 -225.32 208 -226 208 C-226 207.34 -226 206.68 -226 206 C-226.66 206 -227.32 206 -228 206 C-228 205.34 -228 204.68 -228 204 C-228.66 204 -229.32 204 -230 204 C-230 203.34 -230 202.68 -230 202 C-230.66 202 -231.32 202 -232 202 C-232 201.34 -232 200.68 -232 200 C-232.66 200 -233.32 200 -234 200 C-234 199.34 -234 198.68 -234 198 C-234.66 198 -235.32 198 -236 198 C-236 197.34 -236 196.68 -236 196 C-236.66 196 -237.32 196 -238 196 C-238 195.34 -238 194.68 -238 194 C-238.66 194 -239.32 194 -240 194 C-240 193.34 -240 192.68 -240 192 C-240.66 192 -241.32 192 -242 192 C-242 191.34 -242 190.68 -242 190 C-242.66 190 -243.32 190 -244 190 C-244 189.34 -244 188.68 -244 188 C-244.66 188 -245.32 188 -246 188 C-246 187.34 -246 186.68 -246 186 C-246.66 186 -247.32 186 -248 186 C-248 185.34 -248 184.68 -248 184 C-248.66 184 -249.32 184 -250 184 C-250 180.7 -250 177.4 -250 174 C-249.34 174 -248.68 174 -248 174 C-248 172.68 -248 171.36 -248 170 C-247.34 170 -246.68 170 -246 170 C-246 169.34 -246 168.68 -246 168 C-245.34 168 -244.68 168 -244 168 C-244 167.34 -244 166.68 -244 166 C-243.34 166 -242.68 166 -242 166 C-242 165.34 -242 164.68 -242 164 C-241.34 164 -240.68 164 -240 164 C-240 163.34 -240 162.68 -240 162 C-239.34 162 -238.68 162 -238 162 C-238 161.34 -238 160.68 -238 160 C-237.34 160 -236.68 160 -236 160 C-236 159.34 -236 158.68 -236 158 C-235.34 158 -234.68 158 -234 158 C-234 157.34 -234 156.68 -234 156 C-233.34 156 -232.68 156 -232 156 C-232 155.34 -232 154.68 -232 154 C-231.34 154 -230.68 154 -230 154 C-230 153.34 -230 152.68 -230 152 C-229.34 152 -228.68 152 -228 152 C-228 151.34 -228 150.68 -228 150 C-227.34 150 -226.68 150 -226 150 C-226 149.34 -226 148.68 -226 148 C-225.34 148 -224.68 148 -224 148 C-224 147.34 -224 146.68 -224 146 C-223.34 146 -222.68 146 -222 146 C-222 145.34 -222 144.68 -222 144 C-221.34 144 -220.68 144 -220 144 C-220 143.34 -220 142.68 -220 142 C-219.34 142 -218.68 142 -218 142 C-218 141.34 -218 140.68 -218 140 C-217.34 140 -216.68 140 -216 140 C-216 139.34 -216 138.68 -216 138 C-215.34 138 -214.68 138 -214 138 C-214 137.34 -214 136.68 -214 136 C-213.34 136 -212.68 136 -212 136 C-212 135.34 -212 134.68 -212 134 C-211.34 134 -210.68 134 -210 134 C-210 133.34 -210 132.68 -210 132 C-209.34 132 -208.68 132 -208 132 C-208 131.34 -208 130.68 -208 130 C-206.68 130 -205.36 130 -204 130 C-204 129.34 -204 128.68 -204 128 C-203.34 128 -202.68 128 -202 128 C-202 127.34 -202 126.68 -202 126 C-200.68 126 -199.36 126 -198 126 C-198 125.34 -198 124.68 -198 124 C-197.34 124 -196.68 124 -196 124 C-196 123.34 -196 122.68 -196 122 C-194.02 122 -192.04 122 -190 122 C-190 121.34 -190 120.68 -190 120 C-188.68 120 -187.36 120 -186 120 C-186 119.34 -186 118.68 -186 118 C-184.02 118 -182.04 118 -180 118 C-180 117.34 -180 116.68 -180 116 C-178.02 116 -176.04 116 -174 116 C-174 115.34 -174 114.68 -174 114 C-170.04 114 -166.08 114 -162 114 C-162 113.34 -162 112.68 -162 112 C-154.08 112 -146.16 112 -138 112 C-138 103.42 -138 94.84 -138 86 C-122.49590723 85.08199451 -107.51320961 85.17871243 -92 86 C-92 97.22 -92 108.44 -92 120 C-95.3 120 -98.6 120 -102 120 C-102 119.34 -102 118.68 -102 118 C-106.62 118 -111.24 118 -116 118 C-116 118.66 -116 119.32 -116 120 C-114.02 120 -112.04 120 -110 120 C-110 120.66 -110 121.32 -110 122 C-108.02 122 -106.04 122 -104 122 C-104 122.66 -104 123.32 -104 124 C-102.02 124 -100.04 124 -98 124 C-98 124.66 -98 125.32 -98 126 C-96.68 126 -95.36 126 -94 126 C-94 126.66 -94 127.32 -94 128 C-92.02 128 -90.04 128 -88 128 C-88 128.66 -88 129.32 -88 130 C-86.02 130 -84.04 130 -82 130 C-82 130.66 -82 131.32 -82 132 C-79.36 132 -76.72 132 -74 132 C-74 132.66 -74 133.32 -74 134 C-70.04 134 -66.08 134 -62 134 C-62 134.66 -62 135.32 -62 136 C-42.2 136 -22.4 136 -2 136 C-2 136.66 -2 137.32 -2 138 C-0.68 138 0.64 138 2 138 C2 138.66 2 139.32 2 140 C3.32 140 4.64 140 6 140 C6 147.26 6 154.52 6 162 C5.34 162 4.68 162 4 162 C4 162.66 4 163.32 4 164 C3.34 164 2.68 164 2 164 C2 164.66 2 165.32 2 166 C1.34 166 0.68 166 0 166 C0 166.66 0 167.32 0 168 C-1.32 168 -2.64 168 -4 168 C-4 168.66 -4 169.32 -4 170 C-5.32 170 -6.64 170 -8 170 C-8 170.66 -8 171.32 -8 172 C-36.38 172 -64.76 172 -94 172 C-94 172.66 -94 173.32 -94 174 C-94.66 174 -95.32 174 -96 174 C-96 175.32 -96 176.64 -96 178 C-95.34 178 -94.68 178 -94 178 C-94 178.66 -94 179.32 -94 180 C-90.04 180 -86.08 180 -82 180 C-82 180.66 -82 181.32 -82 182 C-76.06 182 -70.12 182 -64 182 C-64 182.66 -64 183.32 -64 184 C-52.12 184 -40.24 184 -28 184 C-28 183.34 -28 182.68 -28 182 C-23.38 182 -18.76 182 -14 182 C-14 181.34 -14 180.68 -14 180 C-11.36 180 -8.72 180 -6 180 C-6 179.34 -6 178.68 -6 178 C-4.68 178 -3.36 178 -2 178 C-2 177.34 -2 176.68 -2 176 C-0.68 176 0.64 176 2 176 C2 175.34 2 174.68 2 174 C2.66 174 3.32 174 4 174 C4 173.34 4 172.68 4 172 C4.66 172 5.32 172 6 172 C6 171.34 6 170.68 6 170 C6.66 170 7.32 170 8 170 C8 169.34 8 168.68 8 168 C8.66 168 9.32 168 10 168 C10 167.34 10 166.68 10 166 C10.66 166 11.32 166 12 166 C12 165.34 12 164.68 12 164 C12.66 164 13.32 164 14 164 C14 162.68 14 161.36 14 160 C14.66 160 15.32 160 16 160 C16 158.02 16 156.04 16 154 C16.66 154 17.32 154 18 154 C18 152.02 18 150.04 18 148 C17.34 148 16.68 148 16 148 C16 146.02 16 144.04 16 142 C15.34 142 14.68 142 14 142 C14 141.34 14 140.68 14 140 C13.34 140 12.68 140 12 140 C12 138.68 12 137.36 12 136 C11.34 136 10.68 136 10 136 C10 135.34 10 134.68 10 134 C9.34 134 8.68 134 8 134 C8 133.34 8 132.68 8 132 C6.68 132 5.36 132 4 132 C4 131.34 4 130.68 4 130 C2.68 130 1.36 130 0 130 C0 129.34 0 128.68 0 128 C-1.32 128 -2.64 128 -4 128 C-4 87.08 -4 46.16 -4 4 C-3.34 4 -2.68 4 -2 4 C-2 3.34 -2 2.68 -2 2 C-1.34 2 -0.68 2 0 2 C0 1.34 0 0.68 0 0 Z M-138 114 C-138 114.33 -138 114.66 -138 115 C-131.73 116.32 -125.46 117.64 -119 119 C-119 118.01 -119 117.02 -119 116 C-125.3778552 114.82706111 -131.50321562 113.70469162 -138 114 Z " fill="#528865" transform="translate(250,78)"/>
<path d="M0 0 C14.52 0 29.04 0 44 0 C44 0.66 44 1.32 44 2 C45.32 2 46.64 2 48 2 C48 40.94 48 79.88 48 120 C48.66 120 49.32 120 50 120 C50 119.34 50 118.68 50 118 C50.66 118 51.32 118 52 118 C52 117.34 52 116.68 52 116 C52.66 116 53.32 116 54 116 C54 115.34 54 114.68 54 114 C54.66 114 55.32 114 56 114 C56 113.34 56 112.68 56 112 C57.32 112 58.64 112 60 112 C60 111.34 60 110.68 60 110 C60.66 110 61.32 110 62 110 C62 109.34 62 108.68 62 108 C62.66 108 63.32 108 64 108 C64 107.34 64 106.68 64 106 C64.66 106 65.32 106 66 106 C66 105.34 66 104.68 66 104 C66.66 104 67.32 104 68 104 C68 103.34 68 102.68 68 102 C68.66 102 69.32 102 70 102 C70 101.34 70 100.68 70 100 C70.66 100 71.32 100 72 100 C72 99.34 72 98.68 72 98 C73.32 98 74.64 98 76 98 C76 97.34 76 96.68 76 96 C76.66 96 77.32 96 78 96 C78 95.34 78 94.68 78 94 C78.66 94 79.32 94 80 94 C80 93.34 80 92.68 80 92 C81.32 92 82.64 92 84 92 C84 91.34 84 90.68 84 90 C85.32 90 86.64 90 88 90 C88 89.34 88 88.68 88 88 C93.94 88 99.88 88 106 88 C106 88.66 106 89.32 106 90 C107.32 90 108.64 90 110 90 C110 90.66 110 91.32 110 92 C110.66 92 111.32 92 112 92 C112 92.66 112 93.32 112 94 C112.66 94 113.32 94 114 94 C114 95.32 114 96.64 114 98 C114.66 98 115.32 98 116 98 C116 101.96 116 105.92 116 110 C115.34 110 114.68 110 114 110 C114 111.32 114 112.64 114 114 C113.34 114 112.68 114 112 114 C112 115.32 112 116.64 112 118 C111.34 118 110.68 118 110 118 C110 118.66 110 119.32 110 120 C109.34 120 108.68 120 108 120 C108 120.66 108 121.32 108 122 C107.34 122 106.68 122 106 122 C106 123.32 106 124.64 106 126 C105.34 126 104.68 126 104 126 C104 126.66 104 127.32 104 128 C103.34 128 102.68 128 102 128 C102 128.66 102 129.32 102 130 C101.34 130 100.68 130 100 130 C100 130.66 100 131.32 100 132 C99.34 132 98.68 132 98 132 C98 133.32 98 134.64 98 136 C97.34 136 96.68 136 96 136 C96 136.66 96 137.32 96 138 C95.34 138 94.68 138 94 138 C94 138.66 94 139.32 94 140 C93.34 140 92.68 140 92 140 C92 140.66 92 141.32 92 142 C91.34 142 90.68 142 90 142 C90 142.66 90 143.32 90 144 C89.34 144 88.68 144 88 144 C88 144.66 88 145.32 88 146 C87.34 146 86.68 146 86 146 C86 147.32 86 148.64 86 150 C85.34 150 84.68 150 84 150 C84 150.66 84 151.32 84 152 C83.34 152 82.68 152 82 152 C82 152.66 82 153.32 82 154 C81.34 154 80.68 154 80 154 C80 154.66 80 155.32 80 156 C79.34 156 78.68 156 78 156 C78 156.66 78 157.32 78 158 C77.34 158 76.68 158 76 158 C76 159.32 76 160.64 76 162 C75.34 162 74.68 162 74 162 C74 162.66 74 163.32 74 164 C73.34 164 72.68 164 72 164 C72 164.66 72 165.32 72 166 C71.34 166 70.68 166 70 166 C70 166.66 70 167.32 70 168 C69.34 168 68.68 168 68 168 C68 168.66 68 169.32 68 170 C67.34 170 66.68 170 66 170 C66 170.66 66 171.32 66 172 C65.34 172 64.68 172 64 172 C64 172.66 64 173.32 64 174 C63.34 174 62.68 174 62 174 C62 174.66 62 175.32 62 176 C61.34 176 60.68 176 60 176 C60 177.32 60 178.64 60 180 C59.34 180 58.68 180 58 180 C58 180.66 58 181.32 58 182 C57.34 182 56.68 182 56 182 C56 182.66 56 183.32 56 184 C55.34 184 54.68 184 54 184 C54 184.66 54 185.32 54 186 C53.34 186 52.68 186 52 186 C52 186.66 52 187.32 52 188 C51.34 188 50.68 188 50 188 C50 188.66 50 189.32 50 190 C49.34 190 48.68 190 48 190 C48 190.66 48 191.32 48 192 C47.34 192 46.68 192 46 192 C46 192.66 46 193.32 46 194 C45.34 194 44.68 194 44 194 C44 194.66 44 195.32 44 196 C43.34 196 42.68 196 42 196 C42 196.66 42 197.32 42 198 C41.34 198 40.68 198 40 198 C40 198.66 40 199.32 40 200 C39.34 200 38.68 200 38 200 C38 200.66 38 201.32 38 202 C37.34 202 36.68 202 36 202 C36 202.66 36 203.32 36 204 C35.34 204 34.68 204 34 204 C34 204.66 34 205.32 34 206 C33.34 206 32.68 206 32 206 C32 206.66 32 207.32 32 208 C31.34 208 30.68 208 30 208 C30 208.66 30 209.32 30 210 C29.34 210 28.68 210 28 210 C28 210.66 28 211.32 28 212 C27.34 212 26.68 212 26 212 C26 212.66 26 213.32 26 214 C24.68 214 23.36 214 22 214 C22 214.66 22 215.32 22 216 C21.34 216 20.68 216 20 216 C20 216.66 20 217.32 20 218 C19.34 218 18.68 218 18 218 C18 218.66 18 219.32 18 220 C17.34 220 16.68 220 16 220 C16 220.66 16 221.32 16 222 C14.68 222 13.36 222 12 222 C12 222.66 12 223.32 12 224 C11.34 224 10.68 224 10 224 C10 224.66 10 225.32 10 226 C9.34 226 8.68 226 8 226 C8 226.66 8 227.32 8 228 C6.68 228 5.36 228 4 228 C4 228.66 4 229.32 4 230 C2.68 230 1.36 230 0 230 C0 230.66 0 231.32 0 232 C-1.32 232 -2.64 232 -4 232 C-4 232.66 -4 233.32 -4 234 C-5.32 234 -6.64 234 -8 234 C-8 234.66 -8 235.32 -8 236 C-9.98 236 -11.96 236 -14 236 C-14 236.66 -14 237.32 -14 238 C-17.3 238 -20.6 238 -24 238 C-24 238.66 -24 239.32 -24 240 C-35.22 240 -46.44 240 -58 240 C-58 239.34 -58 238.68 -58 238 C-61.96 238 -65.92 238 -70 238 C-70 237.34 -70 236.68 -70 236 C-73.96 236 -77.92 236 -82 236 C-82 235.34 -82 234.68 -82 234 C-85.3 234 -88.6 234 -92 234 C-92 233.34 -92 232.68 -92 232 C-95.96 232 -99.92 232 -104 232 C-104 231.34 -104 230.68 -104 230 C-107.3 230 -110.6 230 -114 230 C-114 229.34 -114 228.68 -114 228 C-117.3 228 -120.6 228 -124 228 C-124 227.34 -124 226.68 -124 226 C-133.9 226 -143.8 226 -154 226 C-154 226.66 -154 227.32 -154 228 C-156.64 228 -159.28 228 -162 228 C-162 228.66 -162 229.32 -162 230 C-163.32 230 -164.64 230 -166 230 C-166 230.66 -166 231.32 -166 232 C-166.66 232 -167.32 232 -168 232 C-168 232.66 -168 233.32 -168 234 C-168.66 234 -169.32 234 -170 234 C-170 234.66 -170 235.32 -170 236 C-171.32 236 -172.64 236 -174 236 C-174 236.66 -174 237.32 -174 238 C-174.66 238 -175.32 238 -176 238 C-176 238.66 -176 239.32 -176 240 C-176.66 240 -177.32 240 -178 240 C-178 240.66 -178 241.32 -178 242 C-178.66 242 -179.32 242 -180 242 C-180 242.66 -180 243.32 -180 244 C-183.3 244 -186.6 244 -190 244 C-190 243.34 -190 242.68 -190 242 C-190.66 242 -191.32 242 -192 242 C-192 241.34 -192 240.68 -192 240 C-192.66 240 -193.32 240 -194 240 C-194 239.34 -194 238.68 -194 238 C-194.66 238 -195.32 238 -196 238 C-196 237.34 -196 236.68 -196 236 C-196.66 236 -197.32 236 -198 236 C-198 235.34 -198 234.68 -198 234 C-198.66 234 -199.32 234 -200 234 C-200 233.34 -200 232.68 -200 232 C-200.66 232 -201.32 232 -202 232 C-202 231.34 -202 230.68 -202 230 C-202.66 230 -203.32 230 -204 230 C-204 229.34 -204 228.68 -204 228 C-204.66 228 -205.32 228 -206 228 C-206 227.34 -206 226.68 -206 226 C-206.66 226 -207.32 226 -208 226 C-208 225.34 -208 224.68 -208 224 C-208.66 224 -209.32 224 -210 224 C-210 223.34 -210 222.68 -210 222 C-210.66 222 -211.32 222 -212 222 C-212 221.34 -212 220.68 -212 220 C-212.66 220 -213.32 220 -214 220 C-214 219.34 -214 218.68 -214 218 C-214.66 218 -215.32 218 -216 218 C-216 217.34 -216 216.68 -216 216 C-216.66 216 -217.32 216 -218 216 C-218 215.34 -218 214.68 -218 214 C-218.66 214 -219.32 214 -220 214 C-220 213.34 -220 212.68 -220 212 C-220.66 212 -221.32 212 -222 212 C-222 211.34 -222 210.68 -222 210 C-222.66 210 -223.32 210 -224 210 C-224 209.34 -224 208.68 -224 208 C-224.66 208 -225.32 208 -226 208 C-226 207.34 -226 206.68 -226 206 C-226.66 206 -227.32 206 -228 206 C-228 205.34 -228 204.68 -228 204 C-228.66 204 -229.32 204 -230 204 C-230 203.34 -230 202.68 -230 202 C-230.66 202 -231.32 202 -232 202 C-232 201.34 -232 200.68 -232 200 C-232.66 200 -233.32 200 -234 200 C-234 199.34 -234 198.68 -234 198 C-234.66 198 -235.32 198 -236 198 C-236 197.34 -236 196.68 -236 196 C-236.66 196 -237.32 196 -238 196 C-238 195.34 -238 194.68 -238 194 C-238.66 194 -239.32 194 -240 194 C-240 193.34 -240 192.68 -240 192 C-240.66 192 -241.32 192 -242 192 C-242 191.34 -242 190.68 -242 190 C-242.66 190 -243.32 190 -244 190 C-244 189.34 -244 188.68 -244 188 C-244.66 188 -245.32 188 -246 188 C-246 187.34 -246 186.68 -246 186 C-246.66 186 -247.32 186 -248 186 C-248 185.34 -248 184.68 -248 184 C-248.66 184 -249.32 184 -250 184 C-250 180.7 -250 177.4 -250 174 C-249.34 174 -248.68 174 -248 174 C-248 172.68 -248 171.36 -248 170 C-247.34 170 -246.68 170 -246 170 C-246 169.34 -246 168.68 -246 168 C-245.34 168 -244.68 168 -244 168 C-244 167.34 -244 166.68 -244 166 C-243.34 166 -242.68 166 -242 166 C-242 165.34 -242 164.68 -242 164 C-241.34 164 -240.68 164 -240 164 C-240 163.34 -240 162.68 -240 162 C-239.34 162 -238.68 162 -238 162 C-238 161.34 -238 160.68 -238 160 C-237.34 160 -236.68 160 -236 160 C-236 159.34 -236 158.68 -236 158 C-235.34 158 -234.68 158 -234 158 C-234 157.34 -234 156.68 -234 156 C-233.34 156 -232.68 156 -232 156 C-232 155.34 -232 154.68 -232 154 C-231.34 154 -230.68 154 -230 154 C-230 153.34 -230 152.68 -230 152 C-229.34 152 -228.68 152 -228 152 C-228 151.34 -228 150.68 -228 150 C-227.34 150 -226.68 150 -226 150 C-226 149.34 -226 148.68 -226 148 C-225.34 148 -224.68 148 -224 148 C-224 147.34 -224 146.68 -224 146 C-223.34 146 -222.68 146 -222 146 C-222 145.34 -222 144.68 -222 144 C-221.34 144 -220.68 144 -220 144 C-220 143.34 -220 142.68 -220 142 C-219.34 142 -218.68 142 -218 142 C-218 141.34 -218 140.68 -218 140 C-217.34 140 -216.68 140 -216 140 C-216 139.34 -216 138.68 -216 138 C-215.34 138 -214.68 138 -214 138 C-214 137.34 -214 136.68 -214 136 C-213.34 136 -212.68 136 -212 136 C-212 135.34 -212 134.68 -212 134 C-211.34 134 -210.68 134 -210 134 C-210 133.34 -210 132.68 -210 132 C-209.34 132 -208.68 132 -208 132 C-208 131.34 -208 130.68 -208 130 C-206.68 130 -205.36 130 -204 130 C-204 129.34 -204 128.68 -204 128 C-203.34 128 -202.68 128 -202 128 C-202 127.34 -202 126.68 -202 126 C-200.68 126 -199.36 126 -198 126 C-198 125.34 -198 124.68 -198 124 C-197.34 124 -196.68 124 -196 124 C-196 123.34 -196 122.68 -196 122 C-194.02 122 -192.04 122 -190 122 C-190 121.34 -190 120.68 -190 120 C-188.68 120 -187.36 120 -186 120 C-186 119.34 -186 118.68 -186 118 C-184.02 118 -182.04 118 -180 118 C-180 117.34 -180 116.68 -180 116 C-178.02 116 -176.04 116 -174 116 C-174 115.34 -174 114.68 -174 114 C-170.04 114 -166.08 114 -162 114 C-162 113.34 -162 112.68 -162 112 C-154.08 112 -146.16 112 -138 112 C-138 103.42 -138 94.84 -138 86 C-122.49590723 85.08199451 -107.51320961 85.17871243 -92 86 C-92 97.22 -92 108.44 -92 120 C-95.3 120 -98.6 120 -102 120 C-102 119.34 -102 118.68 -102 118 C-106.62 118 -111.24 118 -116 118 C-116 118.66 -116 119.32 -116 120 C-114.02 120 -112.04 120 -110 120 C-110 120.66 -110 121.32 -110 122 C-108.02 122 -106.04 122 -104 122 C-104 122.66 -104 123.32 -104 124 C-102.02 124 -100.04 124 -98 124 C-98 124.66 -98 125.32 -98 126 C-96.68 126 -95.36 126 -94 126 C-94 126.66 -94 127.32 -94 128 C-92.02 128 -90.04 128 -88 128 C-88 128.66 -88 129.32 -88 130 C-86.02 130 -84.04 130 -82 130 C-82 130.66 -82 131.32 -82 132 C-79.36 132 -76.72 132 -74 132 C-74 132.66 -74 133.32 -74 134 C-70.04 134 -66.08 134 -62 134 C-62 134.66 -62 135.32 -62 136 C-42.2 136 -22.4 136 -2 136 C-2 136.66 -2 137.32 -2 138 C-0.68 138 0.64 138 2 138 C2 138.66 2 139.32 2 140 C3.32 140 4.64 140 6 140 C6 147.26 6 154.52 6 162 C5.34 162 4.68 162 4 162 C4 162.66 4 163.32 4 164 C3.34 164 2.68 164 2 164 C2 164.66 2 165.32 2 166 C1.34 166 0.68 166 0 166 C0 166.66 0 167.32 0 168 C-1.32 168 -2.64 168 -4 168 C-4 168.66 -4 169.32 -4 170 C-5.32 170 -6.64 170 -8 170 C-8 170.66 -8 171.32 -8 172 C-36.38 172 -64.76 172 -94 172 C-94 172.66 -94 173.32 -94 174 C-94.66 174 -95.32 174 -96 174 C-96 175.32 -96 176.64 -96 178 C-95.34 178 -94.68 178 -94 178 C-94 178.66 -94 179.32 -94 180 C-90.04 180 -86.08 180 -82 180 C-82 180.66 -82 181.32 -82 182 C-76.06 182 -70.12 182 -64 182 C-64 182.66 -64 183.32 -64 184 C-52.12 184 -40.24 184 -28 184 C-28 183.34 -28 182.68 -28 182 C-23.38 182 -18.76 182 -14 182 C-14 181.34 -14 180.68 -14 180 C-11.36 180 -8.72 180 -6 180 C-6 179.34 -6 178.68 -6 178 C-4.68 178 -3.36 178 -2 178 C-2 177.34 -2 176.68 -2 176 C-0.68 176 0.64 176 2 176 C2 175.34 2 174.68 2 174 C2.66 174 3.32 174 4 174 C4 173.34 4 172.68 4 172 C4.66 172 5.32 172 6 172 C6 171.34 6 170.68 6 170 C6.66 170 7.32 170 8 170 C8 169.34 8 168.68 8 168 C8.66 168 9.32 168 10 168 C10 167.34 10 166.68 10 166 C10.66 166 11.32 166 12 166 C12 165.34 12 164.68 12 164 C12.66 164 13.32 164 14 164 C14 162.68 14 161.36 14 160 C14.66 160 15.32 160 16 160 C16 158.02 16 156.04 16 154 C16.66 154 17.32 154 18 154 C18 152.02 18 150.04 18 148 C17.34 148 16.68 148 16 148 C16 146.02 16 144.04 16 142 C15.34 142 14.68 142 14 142 C14 141.34 14 140.68 14 140 C13.34 140 12.68 140 12 140 C12 138.68 12 137.36 12 136 C11.34 136 10.68 136 10 136 C10 135.34 10 134.68 10 134 C9.34 134 8.68 134 8 134 C8 133.34 8 132.68 8 132 C6.68 132 5.36 132 4 132 C4 131.34 4 130.68 4 130 C2.68 130 1.36 130 0 130 C0 129.34 0 128.68 0 128 C-1.32 128 -2.64 128 -4 128 C-4 87.08 -4 46.16 -4 4 C-3.34 4 -2.68 4 -2 4 C-2 3.34 -2 2.68 -2 2 C-1.34 2 -0.68 2 0 2 C0 1.34 0 0.68 0 0 Z M-138 114 C-138 114.33 -138 114.66 -138 115 C-131.73 116.32 -125.46 117.64 -119 119 C-119 118.01 -119 117.02 -119 116 C-125.3778552 114.82706111 -131.50321562 113.70469162 -138 114 Z M7 3 C7 3.66 7 4.32 7 5 C5.68 5 4.36 5 3 5 C3 5.66 3 6.32 3 7 C2.34 7 1.68 7 1 7 C1 8.32 1 9.64 1 11 C0.34 11 -0.32 11 -1 11 C-1 48.62 -1 86.24 -1 125 C1.64 125 4.28 125 7 125 C7 125.66 7 126.32 7 127 C8.32 127 9.64 127 11 127 C11 127.66 11 128.32 11 129 C12.32 129 13.64 129 15 129 C15 130.32 15 131.64 15 133 C15.66 133 16.32 133 17 133 C17 133.66 17 134.32 17 135 C17.66 135 18.32 135 19 135 C19 136.98 19 138.96 19 141 C19.66 141 20.32 141 21 141 C21 147.6 21 154.2 21 161 C20.34 161 19.68 161 19 161 C19 162.98 19 164.96 19 167 C18.34 167 17.68 167 17 167 C17 168.32 17 169.64 17 171 C16.34 171 15.68 171 15 171 C15 171.66 15 172.32 15 173 C14.34 173 13.68 173 13 173 C13 173.66 13 174.32 13 175 C12.34 175 11.68 175 11 175 C11 175.66 11 176.32 11 177 C10.34 177 9.68 177 9 177 C9 177.66 9 178.32 9 179 C7.68 179 6.36 179 5 179 C5 179.66 5 180.32 5 181 C3.68 181 2.36 181 1 181 C1 181.66 1 182.32 1 183 C-1.64 183 -4.28 183 -7 183 C-7 183.66 -7 184.32 -7 185 C-11.62 185 -16.24 185 -21 185 C-21 185.66 -21 186.32 -21 187 C-37.5 187 -54 187 -71 187 C-71 186.34 -71 185.68 -71 185 C-76.94 185 -82.88 185 -89 185 C-89 184.34 -89 183.68 -89 183 C-92.96 183 -96.92 183 -101 183 C-101 178.38 -101 173.76 -101 169 C-72.62 169 -44.24 169 -15 169 C-15 168.34 -15 167.68 -15 167 C-13.68 167 -12.36 167 -11 167 C-11 166.34 -11 165.68 -11 165 C-9.68 165 -8.36 165 -7 165 C-7 164.34 -7 163.68 -7 163 C-6.34 163 -5.68 163 -5 163 C-5 162.34 -5 161.68 -5 161 C-4.34 161 -3.68 161 -3 161 C-3 160.34 -3 159.68 -3 159 C-2.34 159 -1.68 159 -1 159 C-1 158.34 -1 157.68 -1 157 C-0.34 157 0.32 157 1 157 C1 156.34 1 155.68 1 155 C1.66 155 2.32 155 3 155 C3 152.36 3 149.72 3 147 C2.34 147 1.68 147 1 147 C1 146.34 1 145.68 1 145 C0.34 145 -0.32 145 -1 145 C-1 144.34 -1 143.68 -1 143 C-2.32 143 -3.64 143 -5 143 C-5 142.34 -5 141.68 -5 141 C-6.32 141 -7.64 141 -9 141 C-9 140.34 -9 139.68 -9 139 C-28.8 139 -48.6 139 -69 139 C-69 138.34 -69 137.68 -69 137 C-72.96 137 -76.92 137 -81 137 C-81 136.34 -81 135.68 -81 135 C-83.64 135 -86.28 135 -89 135 C-89 134.34 -89 133.68 -89 133 C-90.98 133 -92.96 133 -95 133 C-95 132.34 -95 131.68 -95 131 C-96.98 131 -98.96 131 -101 131 C-101 130.34 -101 129.68 -101 129 C-102.32 129 -103.64 129 -105 129 C-105 128.34 -105 127.68 -105 127 C-106.98 127 -108.96 127 -111 127 C-111 126.34 -111 125.68 -111 125 C-112.98 125 -114.96 125 -117 125 C-117 124.34 -117 123.68 -117 123 C-118.98 123 -120.96 123 -123 123 C-123 122.01 -123 121.02 -123 120 C-131.14043404 117.82576642 -138.5657073 116.54363547 -147 117 C-147 116.34 -147 115.68 -147 115 C-149.64 115 -152.28 115 -155 115 C-155 115.66 -155 116.32 -155 117 C-158.96 117 -162.92 117 -167 117 C-167 117.66 -167 118.32 -167 119 C-168.98 119 -170.96 119 -173 119 C-173 119.66 -173 120.32 -173 121 C-174.98 121 -176.96 121 -179 121 C-179 121.66 -179 122.32 -179 123 C-180.32 123 -181.64 123 -183 123 C-183 123.66 -183 124.32 -183 125 C-184.98 125 -186.96 125 -189 125 C-189 125.66 -189 126.32 -189 127 C-189.66 127 -190.32 127 -191 127 C-191 127.66 -191 128.32 -191 129 C-192.32 129 -193.64 129 -195 129 C-195 129.66 -195 130.32 -195 131 C-195.66 131 -196.32 131 -197 131 C-197 131.66 -197 132.32 -197 133 C-198.32 133 -199.64 133 -201 133 C-201 133.66 -201 134.32 -201 135 C-201.66 135 -202.32 135 -203 135 C-203 135.66 -203 136.32 -203 137 C-203.66 137 -204.32 137 -205 137 C-205 137.66 -205 138.32 -205 139 C-205.66 139 -206.32 139 -207 139 C-207 139.66 -207 140.32 -207 141 C-207.66 141 -208.32 141 -209 141 C-209 141.66 -209 142.32 -209 143 C-209.66 143 -210.32 143 -211 143 C-211 143.66 -211 144.32 -211 145 C-211.66 145 -212.32 145 -213 145 C-213 145.66 -213 146.32 -213 147 C-213.66 147 -214.32 147 -215 147 C-215 147.66 -215 148.32 -215 149 C-215.66 149 -216.32 149 -217 149 C-217 149.66 -217 150.32 -217 151 C-217.66 151 -218.32 151 -219 151 C-219 151.66 -219 152.32 -219 153 C-219.66 153 -220.32 153 -221 153 C-221 153.66 -221 154.32 -221 155 C-221.66 155 -222.32 155 -223 155 C-223 155.66 -223 156.32 -223 157 C-223.66 157 -224.32 157 -225 157 C-225 157.66 -225 158.32 -225 159 C-225.66 159 -226.32 159 -227 159 C-227 159.66 -227 160.32 -227 161 C-227.66 161 -228.32 161 -229 161 C-229 161.66 -229 162.32 -229 163 C-229.66 163 -230.32 163 -231 163 C-231 163.66 -231 164.32 -231 165 C-231.66 165 -232.32 165 -233 165 C-233 165.66 -233 166.32 -233 167 C-233.66 167 -234.32 167 -235 167 C-235 167.66 -235 168.32 -235 169 C-235.66 169 -236.32 169 -237 169 C-237 169.66 -237 170.32 -237 171 C-237.66 171 -238.32 171 -239 171 C-239 171.66 -239 172.32 -239 173 C-239.66 173 -240.32 173 -241 173 C-241 173.66 -241 174.32 -241 175 C-241.66 175 -242.32 175 -243 175 C-243 175.66 -243 176.32 -243 177 C-243.66 177 -244.32 177 -245 177 C-245 177.66 -245 178.32 -245 179 C-244.34 179 -243.68 179 -243 179 C-243 179.66 -243 180.32 -243 181 C-242.34 181 -241.68 181 -241 181 C-241 181.66 -241 182.32 -241 183 C-240.34 183 -239.68 183 -239 183 C-239 183.66 -239 184.32 -239 185 C-238.34 185 -237.68 185 -237 185 C-237 185.66 -237 186.32 -237 187 C-236.34 187 -235.68 187 -235 187 C-235 187.66 -235 188.32 -235 189 C-234.34 189 -233.68 189 -233 189 C-233 189.66 -233 190.32 -233 191 C-232.34 191 -231.68 191 -231 191 C-231 191.66 -231 192.32 -231 193 C-230.34 193 -229.68 193 -229 193 C-229 193.66 -229 194.32 -229 195 C-228.34 195 -227.68 195 -227 195 C-227 195.66 -227 196.32 -227 197 C-226.34 197 -225.68 197 -225 197 C-225 197.66 -225 198.32 -225 199 C-224.34 199 -223.68 199 -223 199 C-223 199.66 -223 200.32 -223 201 C-222.34 201 -221.68 201 -221 201 C-221 201.66 -221 202.32 -221 203 C-220.34 203 -219.68 203 -219 203 C-219 203.66 -219 204.32 -219 205 C-218.34 205 -217.68 205 -217 205 C-217 205.66 -217 206.32 -217 207 C-216.34 207 -215.68 207 -215 207 C-215 207.66 -215 208.32 -215 209 C-214.34 209 -213.68 209 -213 209 C-213 209.66 -213 210.32 -213 211 C-212.34 211 -211.68 211 -211 211 C-211 211.66 -211 212.32 -211 213 C-210.34 213 -209.68 213 -209 213 C-209 213.66 -209 214.32 -209 215 C-208.34 215 -207.68 215 -207 215 C-207 215.66 -207 216.32 -207 217 C-206.34 217 -205.68 217 -205 217 C-205 217.66 -205 218.32 -205 219 C-204.34 219 -203.68 219 -203 219 C-203 219.66 -203 220.32 -203 221 C-202.34 221 -201.68 221 -201 221 C-201 221.66 -201 222.32 -201 223 C-200.34 223 -199.68 223 -199 223 C-199 223.66 -199 224.32 -199 225 C-198.34 225 -197.68 225 -197 225 C-197 225.66 -197 226.32 -197 227 C-196.34 227 -195.68 227 -195 227 C-195 227.66 -195 228.32 -195 229 C-194.34 229 -193.68 229 -193 229 C-193 229.66 -193 230.32 -193 231 C-192.34 231 -191.68 231 -191 231 C-191 231.66 -191 232.32 -191 233 C-190.34 233 -189.68 233 -189 233 C-189 233.66 -189 234.32 -189 235 C-188.34 235 -187.68 235 -187 235 C-187 235.66 -187 236.32 -187 237 C-185.68 237 -184.36 237 -183 237 C-183 236.34 -183 235.68 -183 235 C-182.34 235 -181.68 235 -181 235 C-181 234.34 -181 233.68 -181 233 C-179.68 233 -178.36 233 -177 233 C-177 232.34 -177 231.68 -177 231 C-176.34 231 -175.68 231 -175 231 C-175 230.34 -175 229.68 -175 229 C-174.34 229 -173.68 229 -173 229 C-173 228.34 -173 227.68 -173 227 C-171.68 227 -170.36 227 -169 227 C-169 226.34 -169 225.68 -169 225 C-166.36 225 -163.72 225 -161 225 C-161 224.34 -161 223.68 -161 223 C-146.48 223 -131.96 223 -117 223 C-117 223.66 -117 224.32 -117 225 C-113.7 225 -110.4 225 -107 225 C-107 225.66 -107 226.32 -107 227 C-103.7 227 -100.4 227 -97 227 C-97 227.66 -97 228.32 -97 229 C-93.04 229 -89.08 229 -85 229 C-85 229.66 -85 230.32 -85 231 C-81.7 231 -78.4 231 -75 231 C-75 231.66 -75 232.32 -75 233 C-71.04 233 -67.08 233 -63 233 C-63 233.66 -63 234.32 -63 235 C-59.04 235 -55.08 235 -51 235 C-51 235.66 -51 236.32 -51 237 C-44.4 237 -37.8 237 -31 237 C-31 236.34 -31 235.68 -31 235 C-27.7 235 -24.4 235 -21 235 C-21 234.34 -21 233.68 -21 233 C-19.02 233 -17.04 233 -15 233 C-15 232.34 -15 231.68 -15 231 C-13.68 231 -12.36 231 -11 231 C-11 230.34 -11 229.68 -11 229 C-9.68 229 -8.36 229 -7 229 C-7 228.34 -7 227.68 -7 227 C-5.68 227 -4.36 227 -3 227 C-3 226.34 -3 225.68 -3 225 C-1.68 225 -0.36 225 1 225 C1 224.34 1 223.68 1 223 C1.66 223 2.32 223 3 223 C3 222.34 3 221.68 3 221 C3.66 221 4.32 221 5 221 C5 220.34 5 219.68 5 219 C6.32 219 7.64 219 9 219 C9 218.34 9 217.68 9 217 C9.66 217 10.32 217 11 217 C11 216.34 11 215.68 11 215 C11.66 215 12.32 215 13 215 C13 214.34 13 213.68 13 213 C13.66 213 14.32 213 15 213 C15 212.34 15 211.68 15 211 C16.32 211 17.64 211 19 211 C19 210.34 19 209.68 19 209 C19.66 209 20.32 209 21 209 C21 208.34 21 207.68 21 207 C21.66 207 22.32 207 23 207 C23 206.34 23 205.68 23 205 C23.66 205 24.32 205 25 205 C25 204.34 25 203.68 25 203 C25.66 203 26.32 203 27 203 C27 202.34 27 201.68 27 201 C27.66 201 28.32 201 29 201 C29 200.34 29 199.68 29 199 C29.66 199 30.32 199 31 199 C31 198.34 31 197.68 31 197 C31.66 197 32.32 197 33 197 C33 196.34 33 195.68 33 195 C33.66 195 34.32 195 35 195 C35 194.34 35 193.68 35 193 C35.66 193 36.32 193 37 193 C37 192.34 37 191.68 37 191 C37.66 191 38.32 191 39 191 C39 190.34 39 189.68 39 189 C39.66 189 40.32 189 41 189 C41 188.34 41 187.68 41 187 C41.66 187 42.32 187 43 187 C43 186.34 43 185.68 43 185 C43.66 185 44.32 185 45 185 C45 184.34 45 183.68 45 183 C45.66 183 46.32 183 47 183 C47 182.34 47 181.68 47 181 C47.66 181 48.32 181 49 181 C49 180.34 49 179.68 49 179 C49.66 179 50.32 179 51 179 C51 178.34 51 177.68 51 177 C51.66 177 52.32 177 53 177 C53 176.34 53 175.68 53 175 C53.66 175 54.32 175 55 175 C55 174.34 55 173.68 55 173 C55.66 173 56.32 173 57 173 C57 171.68 57 170.36 57 169 C57.66 169 58.32 169 59 169 C59 168.34 59 167.68 59 167 C59.66 167 60.32 167 61 167 C61 166.34 61 165.68 61 165 C61.66 165 62.32 165 63 165 C63 164.34 63 163.68 63 163 C63.66 163 64.32 163 65 163 C65 162.34 65 161.68 65 161 C65.66 161 66.32 161 67 161 C67 160.34 67 159.68 67 159 C67.66 159 68.32 159 69 159 C69 158.34 69 157.68 69 157 C69.66 157 70.32 157 71 157 C71 156.34 71 155.68 71 155 C71.66 155 72.32 155 73 155 C73 153.68 73 152.36 73 151 C73.66 151 74.32 151 75 151 C75 150.34 75 149.68 75 149 C75.66 149 76.32 149 77 149 C77 148.34 77 147.68 77 147 C77.66 147 78.32 147 79 147 C79 146.34 79 145.68 79 145 C79.66 145 80.32 145 81 145 C81 144.34 81 143.68 81 143 C81.66 143 82.32 143 83 143 C83 141.68 83 140.36 83 139 C83.66 139 84.32 139 85 139 C85 138.34 85 137.68 85 137 C85.66 137 86.32 137 87 137 C87 136.34 87 135.68 87 135 C87.66 135 88.32 135 89 135 C89 134.34 89 133.68 89 133 C89.66 133 90.32 133 91 133 C91 132.34 91 131.68 91 131 C91.66 131 92.32 131 93 131 C93 130.34 93 129.68 93 129 C93.66 129 94.32 129 95 129 C95 127.68 95 126.36 95 125 C95.66 125 96.32 125 97 125 C97 124.34 97 123.68 97 123 C97.66 123 98.32 123 99 123 C99 122.34 99 121.68 99 121 C99.66 121 100.32 121 101 121 C101 120.34 101 119.68 101 119 C101.66 119 102.32 119 103 119 C103 117.68 103 116.36 103 115 C103.66 115 104.32 115 105 115 C105 114.34 105 113.68 105 113 C105.66 113 106.32 113 107 113 C107 112.34 107 111.68 107 111 C107.66 111 108.32 111 109 111 C109 109.68 109 108.36 109 107 C109.66 107 110.32 107 111 107 C111 105.02 111 103.04 111 101 C110.34 101 109.68 101 109 101 C109 100.34 109 99.68 109 99 C108.34 99 107.68 99 107 99 C107 98.34 107 97.68 107 97 C106.34 97 105.68 97 105 97 C105 96.34 105 95.68 105 95 C104.34 95 103.68 95 103 95 C103 94.34 103 93.68 103 93 C101.68 93 100.36 93 99 93 C99 92.34 99 91.68 99 91 C97.68 91 96.36 91 95 91 C95 91.66 95 92.32 95 93 C93.68 93 92.36 93 91 93 C91 93.66 91 94.32 91 95 C89.68 95 88.36 95 87 95 C87 95.66 87 96.32 87 97 C86.34 97 85.68 97 85 97 C85 97.66 85 98.32 85 99 C84.34 99 83.68 99 83 99 C83 99.66 83 100.32 83 101 C81.68 101 80.36 101 79 101 C79 101.66 79 102.32 79 103 C78.34 103 77.68 103 77 103 C77 103.66 77 104.32 77 105 C76.34 105 75.68 105 75 105 C75 105.66 75 106.32 75 107 C74.34 107 73.68 107 73 107 C73 107.66 73 108.32 73 109 C72.34 109 71.68 109 71 109 C71 109.66 71 110.32 71 111 C70.34 111 69.68 111 69 111 C69 111.66 69 112.32 69 113 C68.34 113 67.68 113 67 113 C67 113.66 67 114.32 67 115 C65.68 115 64.36 115 63 115 C63 115.66 63 116.32 63 117 C62.34 117 61.68 117 61 117 C61 117.66 61 118.32 61 119 C60.34 119 59.68 119 59 119 C59 119.66 59 120.32 59 121 C58.34 121 57.68 121 57 121 C57 121.66 57 122.32 57 123 C56.34 123 55.68 123 55 123 C55 123.66 55 124.32 55 125 C54.34 125 53.68 125 53 125 C53 125.66 53 126.32 53 127 C51.02 127 49.04 127 47 127 C47 126.34 47 125.68 47 125 C46.34 125 45.68 125 45 125 C45 86.72 45 48.44 45 9 C44.34 9 43.68 9 43 9 C43 8.34 43 7.68 43 7 C42.34 7 41.68 7 41 7 C41 6.34 41 5.68 41 5 C39.68 5 38.36 5 37 5 C37 4.34 37 3.68 37 3 C27.1 3 17.2 3 7 3 Z " fill="#1A495F" transform="translate(250,78)"/>
<path d="M0 0 C18.48 0 36.96 0 56 0 C56 0.66 56 1.32 56 2 C56.66 2 57.32 2 58 2 C58 19.82 58 37.64 58 56 C57.34 56 56.68 56 56 56 C56 56.66 56 57.32 56 58 C51.38 58 46.76 58 42 58 C42 57.34 42 56.68 42 56 C41.34 56 40.68 56 40 56 C40 48.08 40 40.16 40 32 C39.34 32 38.68 32 38 32 C38 32.66 38 33.32 38 34 C37.34 34 36.68 34 36 34 C36 34.66 36 35.32 36 36 C35.34 36 34.68 36 34 36 C34 36.66 34 37.32 34 38 C33.34 38 32.68 38 32 38 C32 38.66 32 39.32 32 40 C31.34 40 30.68 40 30 40 C30 40.66 30 41.32 30 42 C29.34 42 28.68 42 28 42 C28 42.66 28 43.32 28 44 C27.34 44 26.68 44 26 44 C26 44.66 26 45.32 26 46 C25.34 46 24.68 46 24 46 C24 46.66 24 47.32 24 48 C23.34 48 22.68 48 22 48 C22 48.66 22 49.32 22 50 C21.34 50 20.68 50 20 50 C20 50.66 20 51.32 20 52 C19.34 52 18.68 52 18 52 C18 52.66 18 53.32 18 54 C17.34 54 16.68 54 16 54 C16 54.66 16 55.32 16 56 C15.34 56 14.68 56 14 56 C14 56.66 14 57.32 14 58 C13.34 58 12.68 58 12 58 C12 58.66 12 59.32 12 60 C11.34 60 10.68 60 10 60 C10 60.66 10 61.32 10 62 C9.34 62 8.68 62 8 62 C8 62.66 8 63.32 8 64 C7.34 64 6.68 64 6 64 C6 64.66 6 65.32 6 66 C5.34 66 4.68 66 4 66 C4 66.66 4 67.32 4 68 C3.34 68 2.68 68 2 68 C2 68.66 2 69.32 2 70 C1.34 70 0.68 70 0 70 C0 70.66 0 71.32 0 72 C-0.66 72 -1.32 72 -2 72 C-2 72.66 -2 73.32 -2 74 C-2.66 74 -3.32 74 -4 74 C-4 74.66 -4 75.32 -4 76 C-4.66 76 -5.32 76 -6 76 C-6 76.66 -6 77.32 -6 78 C-6.66 78 -7.32 78 -8 78 C-8 78.66 -8 79.32 -8 80 C-8.66 80 -9.32 80 -10 80 C-10 80.66 -10 81.32 -10 82 C-10.66 82 -11.32 82 -12 82 C-12 82.66 -12 83.32 -12 84 C-12.66 84 -13.32 84 -14 84 C-14 84.66 -14 85.32 -14 86 C-14.66 86 -15.32 86 -16 86 C-16 86.66 -16 87.32 -16 88 C-16.66 88 -17.32 88 -18 88 C-18 88.66 -18 89.32 -18 90 C-18.66 90 -19.32 90 -20 90 C-20 90.66 -20 91.32 -20 92 C-20.66 92 -21.32 92 -22 92 C-22 92.66 -22 93.32 -22 94 C-22.66 94 -23.32 94 -24 94 C-24 94.66 -24 95.32 -24 96 C-24.66 96 -25.32 96 -26 96 C-26 96.66 -26 97.32 -26 98 C-26.66 98 -27.32 98 -28 98 C-28 98.66 -28 99.32 -28 100 C-28.66 100 -29.32 100 -30 100 C-30 100.66 -30 101.32 -30 102 C-30.66 102 -31.32 102 -32 102 C-32 102.66 -32 103.32 -32 104 C-32.66 104 -33.32 104 -34 104 C-34 104.66 -34 105.32 -34 106 C-39.94 106 -45.88 106 -52 106 C-52 105.34 -52 104.68 -52 104 C-52.66 104 -53.32 104 -54 104 C-54 103.34 -54 102.68 -54 102 C-54.66 102 -55.32 102 -56 102 C-56 101.34 -56 100.68 -56 100 C-56.66 100 -57.32 100 -58 100 C-58 99.34 -58 98.68 -58 98 C-58.66 98 -59.32 98 -60 98 C-60 97.34 -60 96.68 -60 96 C-60.66 96 -61.32 96 -62 96 C-62 95.34 -62 94.68 -62 94 C-62.66 94 -63.32 94 -64 94 C-64 93.34 -64 92.68 -64 92 C-64.66 92 -65.32 92 -66 92 C-66 91.34 -66 90.68 -66 90 C-66.66 90 -67.32 90 -68 90 C-68 89.34 -68 88.68 -68 88 C-68.66 88 -69.32 88 -70 88 C-70 87.34 -70 86.68 -70 86 C-70.66 86 -71.32 86 -72 86 C-72 86.66 -72 87.32 -72 88 C-72.66 88 -73.32 88 -74 88 C-74 88.66 -74 89.32 -74 90 C-74.66 90 -75.32 90 -76 90 C-76 90.66 -76 91.32 -76 92 C-76.66 92 -77.32 92 -78 92 C-78 92.66 -78 93.32 -78 94 C-78.66 94 -79.32 94 -80 94 C-80 94.66 -80 95.32 -80 96 C-80.66 96 -81.32 96 -82 96 C-82 96.66 -82 97.32 -82 98 C-82.66 98 -83.32 98 -84 98 C-84 98.66 -84 99.32 -84 100 C-84.66 100 -85.32 100 -86 100 C-86 100.66 -86 101.32 -86 102 C-86.66 102 -87.32 102 -88 102 C-88 102.66 -88 103.32 -88 104 C-88.66 104 -89.32 104 -90 104 C-90 104.66 -90 105.32 -90 106 C-90.66 106 -91.32 106 -92 106 C-92 106.66 -92 107.32 -92 108 C-92.66 108 -93.32 108 -94 108 C-94 108.66 -94 109.32 -94 110 C-94.66 110 -95.32 110 -96 110 C-96 110.66 -96 111.32 -96 112 C-96.66 112 -97.32 112 -98 112 C-98 112.66 -98 113.32 -98 114 C-98.66 114 -99.32 114 -100 114 C-100 114.66 -100 115.32 -100 116 C-100.66 116 -101.32 116 -102 116 C-102 116.66 -102 117.32 -102 118 C-102.66 118 -103.32 118 -104 118 C-104 118.66 -104 119.32 -104 120 C-104.66 120 -105.32 120 -106 120 C-106 120.66 -106 121.32 -106 122 C-106.66 122 -107.32 122 -108 122 C-108 122.66 -108 123.32 -108 124 C-108.66 124 -109.32 124 -110 124 C-110 124.66 -110 125.32 -110 126 C-110.66 126 -111.32 126 -112 126 C-112 126.66 -112 127.32 -112 128 C-112.66 128 -113.32 128 -114 128 C-114 128.66 -114 129.32 -114 130 C-114.66 130 -115.32 130 -116 130 C-116 130.66 -116 131.32 -116 132 C-116.66 132 -117.32 132 -118 132 C-118 132.66 -118 133.32 -118 134 C-118.66 134 -119.32 134 -120 134 C-120 134.66 -120 135.32 -120 136 C-120.66 136 -121.32 136 -122 136 C-122 136.66 -122 137.32 -122 138 C-122.66 138 -123.32 138 -124 138 C-124 138.66 -124 139.32 -124 140 C-124.66 140 -125.32 140 -126 140 C-126 140.66 -126 141.32 -126 142 C-126.66 142 -127.32 142 -128 142 C-128 142.66 -128 143.32 -128 144 C-128.66 144 -129.32 144 -130 144 C-130 144.66 -130 145.32 -130 146 C-130.66 146 -131.32 146 -132 146 C-132 146.66 -132 147.32 -132 148 C-132.66 148 -133.32 148 -134 148 C-134 148.66 -134 149.32 -134 150 C-134.66 150 -135.32 150 -136 150 C-136 150.66 -136 151.32 -136 152 C-136.66 152 -137.32 152 -138 152 C-138 152.66 -138 153.32 -138 154 C-138.66 154 -139.32 154 -140 154 C-140 154.66 -140 155.32 -140 156 C-140.66 156 -141.32 156 -142 156 C-142 156.66 -142 157.32 -142 158 C-142.66 158 -143.32 158 -144 158 C-144 158.66 -144 159.32 -144 160 C-144.66 160 -145.32 160 -146 160 C-146 160.66 -146 161.32 -146 162 C-150.62 162 -155.24 162 -160 162 C-160 161.34 -160 160.68 -160 160 C-160.66 160 -161.32 160 -162 160 C-162 155.38 -162 150.76 -162 146 C-161.34 146 -160.68 146 -160 146 C-160 145.34 -160 144.68 -160 144 C-159.34 144 -158.68 144 -158 144 C-158 143.34 -158 142.68 -158 142 C-157.34 142 -156.68 142 -156 142 C-156 141.34 -156 140.68 -156 140 C-155.34 140 -154.68 140 -154 140 C-154 139.34 -154 138.68 -154 138 C-153.34 138 -152.68 138 -152 138 C-152 137.34 -152 136.68 -152 136 C-151.34 136 -150.68 136 -150 136 C-150 135.34 -150 134.68 -150 134 C-149.34 134 -148.68 134 -148 134 C-148 133.34 -148 132.68 -148 132 C-147.34 132 -146.68 132 -146 132 C-146 131.34 -146 130.68 -146 130 C-145.34 130 -144.68 130 -144 130 C-144 129.34 -144 128.68 -144 128 C-143.34 128 -142.68 128 -142 128 C-142 127.34 -142 126.68 -142 126 C-141.34 126 -140.68 126 -140 126 C-140 125.34 -140 124.68 -140 124 C-139.34 124 -138.68 124 -138 124 C-138 123.34 -138 122.68 -138 122 C-137.34 122 -136.68 122 -136 122 C-136 121.34 -136 120.68 -136 120 C-135.34 120 -134.68 120 -134 120 C-134 119.34 -134 118.68 -134 118 C-133.34 118 -132.68 118 -132 118 C-132 117.34 -132 116.68 -132 116 C-131.34 116 -130.68 116 -130 116 C-130 115.34 -130 114.68 -130 114 C-129.34 114 -128.68 114 -128 114 C-128 113.34 -128 112.68 -128 112 C-127.34 112 -126.68 112 -126 112 C-126 111.34 -126 110.68 -126 110 C-125.34 110 -124.68 110 -124 110 C-124 109.34 -124 108.68 -124 108 C-123.34 108 -122.68 108 -122 108 C-122 107.34 -122 106.68 -122 106 C-121.34 106 -120.68 106 -120 106 C-120 105.34 -120 104.68 -120 104 C-119.34 104 -118.68 104 -118 104 C-118 103.34 -118 102.68 -118 102 C-117.34 102 -116.68 102 -116 102 C-116 101.34 -116 100.68 -116 100 C-115.34 100 -114.68 100 -114 100 C-114 99.34 -114 98.68 -114 98 C-113.34 98 -112.68 98 -112 98 C-112 97.34 -112 96.68 -112 96 C-111.34 96 -110.68 96 -110 96 C-110 95.34 -110 94.68 -110 94 C-109.34 94 -108.68 94 -108 94 C-108 93.34 -108 92.68 -108 92 C-107.34 92 -106.68 92 -106 92 C-106 91.34 -106 90.68 -106 90 C-105.34 90 -104.68 90 -104 90 C-104 89.34 -104 88.68 -104 88 C-103.34 88 -102.68 88 -102 88 C-102 87.34 -102 86.68 -102 86 C-101.34 86 -100.68 86 -100 86 C-100 85.34 -100 84.68 -100 84 C-99.34 84 -98.68 84 -98 84 C-98 83.34 -98 82.68 -98 82 C-97.34 82 -96.68 82 -96 82 C-96 81.34 -96 80.68 -96 80 C-95.34 80 -94.68 80 -94 80 C-94 79.34 -94 78.68 -94 78 C-93.34 78 -92.68 78 -92 78 C-92 77.34 -92 76.68 -92 76 C-91.34 76 -90.68 76 -90 76 C-90 75.34 -90 74.68 -90 74 C-89.34 74 -88.68 74 -88 74 C-88 73.34 -88 72.68 -88 72 C-87.34 72 -86.68 72 -86 72 C-86 71.34 -86 70.68 -86 70 C-85.34 70 -84.68 70 -84 70 C-84 69.34 -84 68.68 -84 68 C-83.34 68 -82.68 68 -82 68 C-82 67.34 -82 66.68 -82 66 C-81.34 66 -80.68 66 -80 66 C-80 65.34 -80 64.68 -80 64 C-73.4 64 -66.8 64 -60 64 C-60 64.66 -60 65.32 -60 66 C-59.34 66 -58.68 66 -58 66 C-58 66.66 -58 67.32 -58 68 C-57.34 68 -56.68 68 -56 68 C-56 68.66 -56 69.32 -56 70 C-55.34 70 -54.68 70 -54 70 C-54 70.66 -54 71.32 -54 72 C-53.34 72 -52.68 72 -52 72 C-52 72.66 -52 73.32 -52 74 C-51.34 74 -50.68 74 -50 74 C-50 74.66 -50 75.32 -50 76 C-49.34 76 -48.68 76 -48 76 C-48 76.66 -48 77.32 -48 78 C-47.34 78 -46.68 78 -46 78 C-46 78.66 -46 79.32 -46 80 C-45.34 80 -44.68 80 -44 80 C-44 80.66 -44 81.32 -44 82 C-42.68 82 -41.36 82 -40 82 C-40 81.34 -40 80.68 -40 80 C-39.34 80 -38.68 80 -38 80 C-38 79.34 -38 78.68 -38 78 C-37.34 78 -36.68 78 -36 78 C-36 77.34 -36 76.68 -36 76 C-35.34 76 -34.68 76 -34 76 C-34 75.34 -34 74.68 -34 74 C-33.34 74 -32.68 74 -32 74 C-32 73.34 -32 72.68 -32 72 C-31.34 72 -30.68 72 -30 72 C-30 71.34 -30 70.68 -30 70 C-29.34 70 -28.68 70 -28 70 C-28 69.34 -28 68.68 -28 68 C-27.34 68 -26.68 68 -26 68 C-26 67.34 -26 66.68 -26 66 C-25.34 66 -24.68 66 -24 66 C-24 65.34 -24 64.68 -24 64 C-23.34 64 -22.68 64 -22 64 C-22 63.34 -22 62.68 -22 62 C-21.34 62 -20.68 62 -20 62 C-20 61.34 -20 60.68 -20 60 C-19.34 60 -18.68 60 -18 60 C-18 59.34 -18 58.68 -18 58 C-17.34 58 -16.68 58 -16 58 C-16 57.34 -16 56.68 -16 56 C-15.34 56 -14.68 56 -14 56 C-14 55.34 -14 54.68 -14 54 C-13.34 54 -12.68 54 -12 54 C-12 53.34 -12 52.68 -12 52 C-11.34 52 -10.68 52 -10 52 C-10 51.34 -10 50.68 -10 50 C-9.34 50 -8.68 50 -8 50 C-8 49.34 -8 48.68 -8 48 C-7.34 48 -6.68 48 -6 48 C-6 47.34 -6 46.68 -6 46 C-5.34 46 -4.68 46 -4 46 C-4 45.34 -4 44.68 -4 44 C-3.34 44 -2.68 44 -2 44 C-2 43.34 -2 42.68 -2 42 C-1.34 42 -0.68 42 0 42 C0 41.34 0 40.68 0 40 C0.66 40 1.32 40 2 40 C2 39.34 2 38.68 2 38 C2.66 38 3.32 38 4 38 C4 37.34 4 36.68 4 36 C4.66 36 5.32 36 6 36 C6 35.34 6 34.68 6 34 C6.66 34 7.32 34 8 34 C8 33.34 8 32.68 8 32 C8.66 32 9.32 32 10 32 C10 31.34 10 30.68 10 30 C10.66 30 11.32 30 12 30 C12 29.34 12 28.68 12 28 C12.66 28 13.32 28 14 28 C14 27.34 14 26.68 14 26 C14.66 26 15.32 26 16 26 C16 25.34 16 24.68 16 24 C16.66 24 17.32 24 18 24 C18 23.34 18 22.68 18 22 C18.66 22 19.32 22 20 22 C20 21.34 20 20.68 20 20 C20.66 20 21.32 20 22 20 C22 19.34 22 18.68 22 18 C14.74 18 7.48 18 0 18 C0 17.34 0 16.68 0 16 C-0.66 16 -1.32 16 -2 16 C-2 11.38 -2 6.76 -2 2 C-1.34 2 -0.68 2 0 2 C0 1.34 0 0.68 0 0 Z " fill="#19485B" transform="translate(242,0)"/>
<path d="M0 0 C15.18 0 30.36 0 46 0 C46 24.42 46 48.84 46 74 C33.46 74 20.92 74 8 74 C8 73.34 8 72.68 8 72 C4.7 72 1.4 72 -2 72 C-2 48.9 -2 25.8 -2 2 C-1.34 2 -0.68 2 0 2 C0 1.34 0 0.68 0 0 Z " fill="#2B5948" transform="translate(180,130)"/>
<path d="M0 0 C10.56 0 21.12 0 32 0 C32 0.66 32 1.32 32 2 C32.66 2 33.32 2 34 2 C34 2.66 34 3.32 34 4 C34.66 4 35.32 4 36 4 C36 11.59 36 19.18 36 27 C30.555 26.814375 30.555 26.814375 25 26.625 C23.87207031 26.59100098 22.74414062 26.55700195 21.58203125 26.52197266 C15.72782518 26.2938733 10.64468771 25.51527478 5 24 C2.03 23.67 -0.94 23.34 -4 23 C-4 16.73 -4 10.46 -4 4 C-3.34 4 -2.68 4 -2 4 C-2 3.34 -2 2.68 -2 2 C-1.34 2 -0.68 2 0 2 C0 1.34 0 0.68 0 0 Z " fill="#4A7C5D" transform="translate(119,167)"/>
<path d="M0 0 C15.18 0 30.36 0 46 0 C46 24.42 46 48.84 46 74 C33.46 74 20.92 74 8 74 C8 73.34 8 72.68 8 72 C4.7 72 1.4 72 -2 72 C-2 48.9 -2 25.8 -2 2 C-1.34 2 -0.68 2 0 2 C0 1.34 0 0.68 0 0 Z M7 3 C7 3.66 7 4.32 7 5 C6.34 5 5.68 5 5 5 C5 5.66 5 6.32 5 7 C4.34 7 3.68 7 3 7 C3 7.66 3 8.32 3 9 C2.34 9 1.68 9 1 9 C1 28.8 1 48.6 1 69 C5.62 69 10.24 69 15 69 C15 69.66 15 70.32 15 71 C24.24 71 33.48 71 43 71 C43 49.88 43 28.76 43 7 C42.34 7 41.68 7 41 7 C41 6.34 41 5.68 41 5 C40.34 5 39.68 5 39 5 C39 4.34 39 3.68 39 3 C28.44 3 17.88 3 7 3 Z " fill="#1A495F" transform="translate(180,130)"/>
<path d="M0 0 C9.9 0 19.8 0 30 0 C27.23522547 2.76477453 24.8033247 2.52458441 21 3 C20.01 3.495 20.01 3.495 19 4 C19 3.34 19 2.68 19 2 C12.73 2 6.46 2 0 2 C0 1.34 0 0.68 0 0 Z M-4 2 C-2.68 2.33 -1.36 2.66 0 3 C-1.32 3.33 -2.64 3.66 -4 4 C-4 3.34 -4 2.68 -4 2 Z " fill="#43755E" transform="translate(257,81)"/>
</svg>
